<svg xmlns="http://www.w3.org/2000/svg" width="1400" height="820" viewBox="0 0 1400 820">
    <defs>
      <linearGradient id="bg" x1="0" y1="0" x2="1" y2="1"><stop stop-color="#07131b"/><stop offset="1" stop-color="#193440"/></linearGradient>
      <pattern id="grid" width="48" height="48" patternUnits="userSpaceOnUse"><path d="M48 0H0V48" fill="none" stroke="#fff" stroke-opacity=".055"/></pattern>
    </defs>
    <rect width="1400" height="820" fill="url(#bg)"/><rect width="1400" height="820" fill="url(#grid)"/>
    <rect x="54" y="54" width="12" height="198" fill="#2dd4bf"/>
    <text x="92" y="92" font-family="Arial, Helvetica, sans-serif" font-size="19" font-weight="900" fill="#2dd4bf">DOCKING TEST</text>
    <text x="92" y="154" font-family="Arial, Helvetica, sans-serif" font-size="46" font-weight="900" fill="#fff">Three positions reveal whether the whole bridge</text><text x="92" y="201.84" font-family="Arial, Helvetica, sans-serif" font-size="46" font-weight="900" fill="#fff">is trustworthy.</text>
    <g>
      <rect x="54" y="300" width="306" height="360" rx="16" fill="#f8fbfc" stroke="#2dd4bf" stroke-width="4"/>
      <rect x="54" y="300" width="306" height="72" rx="16" fill="#2dd4bf"/>
      <text x="76" y="345" font-family="Arial, Helvetica, sans-serif" font-size="24" font-weight="900" fill="#07131b">FULL ASTERN</text>
      <circle cx="80" cy="416" r="6" fill="#2dd4bf"/><text x="98" y="424" font-family="Arial, Helvetica, sans-serif" font-size="22" font-weight="700" fill="#1d2a34">Both engines</text><text x="98" y="449.3" font-family="Arial, Helvetica, sans-serif" font-size="22" font-weight="700" fill="#1d2a34">independent</text><circle cx="80" cy="480" r="6" fill="#2dd4bf"/><text x="98" y="488" font-family="Arial, Helvetica, sans-serif" font-size="22" font-weight="700" fill="#1d2a34">No crossed channels</text><circle cx="80" cy="544" r="6" fill="#2dd4bf"/><text x="98" y="552" font-family="Arial, Helvetica, sans-serif" font-size="22" font-weight="700" fill="#1d2a34">View remains still</text>
    </g><g>
      <rect x="386" y="300" width="306" height="360" rx="16" fill="#f8fbfc" stroke="#2dd4bf" stroke-width="4"/>
      <rect x="386" y="300" width="306" height="72" rx="16" fill="#2dd4bf"/>
      <text x="408" y="345" font-family="Arial, Helvetica, sans-serif" font-size="24" font-weight="900" fill="#07131b">NEUTRAL</text>
      <circle cx="412" cy="416" r="6" fill="#2dd4bf"/><text x="430" y="424" font-family="Arial, Helvetica, sans-serif" font-size="22" font-weight="700" fill="#1d2a34">Stable dead zone</text><circle cx="412" cy="480" r="6" fill="#2dd4bf"/><text x="430" y="488" font-family="Arial, Helvetica, sans-serif" font-size="22" font-weight="700" fill="#1d2a34">No creeping RPM</text><circle cx="412" cy="544" r="6" fill="#2dd4bf"/><text x="430" y="552" font-family="Arial, Helvetica, sans-serif" font-size="22" font-weight="700" fill="#1d2a34">Physical detent aligns</text>
    </g><g>
      <rect x="718" y="300" width="306" height="360" rx="16" fill="#f8fbfc" stroke="#2dd4bf" stroke-width="4"/>
      <rect x="718" y="300" width="306" height="72" rx="16" fill="#2dd4bf"/>
      <text x="740" y="345" font-family="Arial, Helvetica, sans-serif" font-size="24" font-weight="900" fill="#07131b">FULL AHEAD</text>
      <circle cx="744" cy="416" r="6" fill="#2dd4bf"/><text x="762" y="424" font-family="Arial, Helvetica, sans-serif" font-size="22" font-weight="700" fill="#1d2a34">Equal maximum range</text><circle cx="744" cy="480" r="6" fill="#2dd4bf"/><text x="762" y="488" font-family="Arial, Helvetica, sans-serif" font-size="22" font-weight="700" fill="#1d2a34">Curves remain smooth</text><circle cx="744" cy="544" r="6" fill="#2dd4bf"/><text x="762" y="552" font-family="Arial, Helvetica, sans-serif" font-size="22" font-weight="700" fill="#1d2a34">No USB dropout</text>
    </g><g>
      <rect x="1050" y="300" width="306" height="360" rx="16" fill="#f8fbfc" stroke="#2dd4bf" stroke-width="4"/>
      <rect x="1050" y="300" width="306" height="72" rx="16" fill="#2dd4bf"/>
      <text x="1072" y="345" font-family="Arial, Helvetica, sans-serif" font-size="24" font-weight="900" fill="#07131b">ASYMMETRIC</text>
      <circle cx="1076" cy="416" r="6" fill="#2dd4bf"/><text x="1094" y="424" font-family="Arial, Helvetica, sans-serif" font-size="22" font-weight="700" fill="#1d2a34">Port ahead / starboard</text><text x="1094" y="449.3" font-family="Arial, Helvetica, sans-serif" font-size="22" font-weight="700" fill="#1d2a34">astern</text><circle cx="1076" cy="480" r="6" fill="#2dd4bf"/><text x="1094" y="488" font-family="Arial, Helvetica, sans-serif" font-size="22" font-weight="700" fill="#1d2a34">Rudder centered</text><circle cx="1076" cy="544" r="6" fill="#2dd4bf"/><text x="1094" y="552" font-family="Arial, Helvetica, sans-serif" font-size="22" font-weight="700" fill="#1d2a34">Practice pivot turn</text>
    </g>
    <rect x="54" y="704" width="1290" height="66" rx="12" fill="#fff" fill-opacity=".1" stroke="#fff" stroke-opacity=".16"/>
    <text x="84" y="745" font-family="Arial, Helvetica, sans-serif" font-size="23" font-weight="650" fill="#e5eef0">A beautiful throttle with crossed engines is still a sculpture.</text>
    <text x="1338" y="798" text-anchor="end" font-family="Arial, Helvetica, sans-serif" font-size="15" font-weight="900" fill="#2dd4bf">IGNITIONSIM · 2026 FIELD MAP</text>
  </svg>