<svg xmlns="http://www.w3.org/2000/svg" width="1400" height="820" viewBox="0 0 1400 820">
    <defs>
      <linearGradient id="bg" x1="0" y1="0" x2="1" y2="1"><stop stop-color="#07131b"/><stop offset="1" stop-color="#193440"/></linearGradient>
      <pattern id="grid" width="48" height="48" patternUnits="userSpaceOnUse"><path d="M48 0H0V48" fill="none" stroke="#fff" stroke-opacity=".055"/></pattern>
    </defs>
    <rect width="1400" height="820" fill="url(#bg)"/><rect width="1400" height="820" fill="url(#grid)"/>
    <rect x="54" y="54" width="12" height="198" fill="#2dd4bf"/>
    <text x="92" y="92" font-family="Arial, Helvetica, sans-serif" font-size="19" font-weight="900" fill="#2dd4bf">NO CONSUMER BOAT AISLE</text>
    <text x="92" y="154" font-family="Arial, Helvetica, sans-serif" font-size="46" font-weight="900" fill="#fff">Prove the axis, then give the borrowed hardware a</text><text x="92" y="201.84" font-family="Arial, Helvetica, sans-serif" font-size="46" font-weight="900" fill="#fff">new job.</text>
    <g>
      <rect x="54" y="300" width="306" height="360" rx="16" fill="#f8fbfc" stroke="#2dd4bf" stroke-width="4"/>
      <rect x="54" y="300" width="306" height="72" rx="16" fill="#2dd4bf"/>
      <text x="76" y="345" font-family="Arial, Helvetica, sans-serif" font-size="24" font-weight="900" fill="#07131b">SOFTWARE GATE</text>
      <circle cx="80" cy="416" r="6" fill="#2dd4bf"/><text x="98" y="424" font-family="Arial, Helvetica, sans-serif" font-size="22" font-weight="700" fill="#1d2a34">Check analog support</text><circle cx="80" cy="480" r="6" fill="#2dd4bf"/><text x="98" y="488" font-family="Arial, Helvetica, sans-serif" font-size="22" font-weight="700" fill="#1d2a34">Find axis names</text><circle cx="80" cy="544" r="6" fill="#2dd4bf"/><text x="98" y="552" font-family="Arial, Helvetica, sans-serif" font-size="22" font-weight="700" fill="#1d2a34">Test inversion and</text><text x="98" y="577.3" font-family="Arial, Helvetica, sans-serif" font-size="22" font-weight="700" fill="#1d2a34">range</text>
    </g><g>
      <rect x="386" y="300" width="306" height="360" rx="16" fill="#f8fbfc" stroke="#2dd4bf" stroke-width="4"/>
      <rect x="386" y="300" width="306" height="72" rx="16" fill="#2dd4bf"/>
      <text x="408" y="345" font-family="Arial, Helvetica, sans-serif" font-size="24" font-weight="900" fill="#07131b">CHEAP PROOF</text>
      <circle cx="412" cy="416" r="6" fill="#2dd4bf"/><text x="430" y="424" font-family="Arial, Helvetica, sans-serif" font-size="22" font-weight="700" fill="#1d2a34">Flight quadrant as</text><text x="430" y="449.3" font-family="Arial, Helvetica, sans-serif" font-size="22" font-weight="700" fill="#1d2a34">engines</text><circle cx="412" cy="480" r="6" fill="#2dd4bf"/><text x="430" y="488" font-family="Arial, Helvetica, sans-serif" font-size="22" font-weight="700" fill="#1d2a34">Wheel or stick as</text><text x="430" y="513.3" font-family="Arial, Helvetica, sans-serif" font-size="22" font-weight="700" fill="#1d2a34">rudder</text><circle cx="412" cy="544" r="6" fill="#2dd4bf"/><text x="430" y="552" font-family="Arial, Helvetica, sans-serif" font-size="22" font-weight="700" fill="#1d2a34">Map buttons visibly</text>
    </g><g>
      <rect x="718" y="300" width="306" height="360" rx="16" fill="#f8fbfc" stroke="#2dd4bf" stroke-width="4"/>
      <rect x="718" y="300" width="306" height="72" rx="16" fill="#2dd4bf"/>
      <text x="740" y="345" font-family="Arial, Helvetica, sans-serif" font-size="24" font-weight="900" fill="#07131b">BETTER BRIDGE</text>
      <circle cx="744" cy="416" r="6" fill="#2dd4bf"/><text x="762" y="424" font-family="Arial, Helvetica, sans-serif" font-size="22" font-weight="700" fill="#1d2a34">Separate port /</text><text x="762" y="449.3" font-family="Arial, Helvetica, sans-serif" font-size="22" font-weight="700" fill="#1d2a34">starboard</text><circle cx="744" cy="480" r="6" fill="#2dd4bf"/><text x="762" y="488" font-family="Arial, Helvetica, sans-serif" font-size="22" font-weight="700" fill="#1d2a34">Repeatable neutral</text><circle cx="744" cy="544" r="6" fill="#2dd4bf"/><text x="762" y="552" font-family="Arial, Helvetica, sans-serif" font-size="22" font-weight="700" fill="#1d2a34">Add bow thruster</text>
    </g><g>
      <rect x="1050" y="300" width="306" height="360" rx="16" fill="#f8fbfc" stroke="#2dd4bf" stroke-width="4"/>
      <rect x="1050" y="300" width="306" height="72" rx="16" fill="#2dd4bf"/>
      <text x="1072" y="345" font-family="Arial, Helvetica, sans-serif" font-size="24" font-weight="900" fill="#07131b">DIY ENDGAME</text>
      <circle cx="1076" cy="416" r="6" fill="#2dd4bf"/><text x="1094" y="424" font-family="Arial, Helvetica, sans-serif" font-size="22" font-weight="700" fill="#1d2a34">USB interface + sensors</text><circle cx="1076" cy="480" r="6" fill="#2dd4bf"/><text x="1094" y="488" font-family="Arial, Helvetica, sans-serif" font-size="22" font-weight="700" fill="#1d2a34">Hard stops + strain</text><text x="1094" y="513.3" font-family="Arial, Helvetica, sans-serif" font-size="22" font-weight="700" fill="#1d2a34">relief</text><circle cx="1076" cy="544" r="6" fill="#2dd4bf"/><text x="1094" y="552" font-family="Arial, Helvetica, sans-serif" font-size="22" font-weight="700" fill="#1d2a34">Document calibration</text>
    </g>
    <rect x="54" y="704" width="1290" height="66" rx="12" fill="#fff" fill-opacity=".1" stroke="#fff" stroke-opacity=".16"/>
    <text x="84" y="745" font-family="Arial, Helvetica, sans-serif" font-size="23" font-weight="650" fill="#e5eef0">If the simulator will not expose an axis, premium hardware cannot negotiate with it.</text>
    <text x="1338" y="798" text-anchor="end" font-family="Arial, Helvetica, sans-serif" font-size="15" font-weight="900" fill="#2dd4bf">IGNITIONSIM · 2026 FIELD MAP</text>
  </svg>