<svg xmlns="http://www.w3.org/2000/svg" viewBox="0 0 1600 1000" font-family="'Helvetica Neue',Arial,sans-serif">
  <defs>
    <linearGradient id="bg" x1="0" y1="0" x2="0" y2="1"><stop offset="0" stop-color="#0b1118"/><stop offset="1" stop-color="#0f1a25"/></linearGradient>
    <radialGradient id="glow" cx="0.85" cy="0.08" r="0.75"><stop offset="0" stop-color="#38bdf8" stop-opacity="0.16"/><stop offset="1" stop-color="#38bdf8" stop-opacity="0"/></radialGradient>
    <pattern id="grid" width="44" height="44" patternUnits="userSpaceOnUse"><path d="M44 0H0V44" fill="none" stroke="#25384a" stroke-width="1" opacity="0.3"/></pattern>
  </defs>
  <rect width="1600" height="1000" fill="url(#bg)"/>
  <rect width="1600" height="1000" fill="url(#grid)"/>
  <rect width="1600" height="1000" fill="url(#glow)"/>
  <rect x="72" y="60" width="14" height="14" fill="#38bdf8"/>
   <text x="100" y="73" font-family="'SFMono-Regular',Consolas,'Liberation Mono',Menlo,monospace" font-size="18" font-weight="700" fill="#38bdf8" text-anchor="start" letter-spacing="4">PER-EYE RESOLUTION → RTX TIER</text>
   <text x="72" y="128" font-family="'Helvetica Neue',Arial,sans-serif" font-size="44" font-weight="800" fill="#eef5fb" text-anchor="start" letter-spacing="-0.5">The GPU Each Headset Needs</text>
   <rect x="72" y="146" width="150" height="5" rx="2.5" fill="#38bdf8"/>
  <rect x="72" y="195" width="1456" height="52" rx="14" ry="14" fill="#1c2b3a" stroke="#38bdf8" stroke-width="1.5" opacity="1"/><rect x="72" y="195" width="8" height="52" fill="#38bdf8"/><text x="102" y="227" font-family="'Helvetica Neue',Arial,sans-serif" font-size="18" font-weight="700" fill="#eef5fb" text-anchor="start" letter-spacing="0">VR renders TWO high-res images every frame — budget roughly HALF your flat-monitor framerate.</text><rect x="72" y="265" width="770" height="90" rx="14" ry="14" fill="#16222e" stroke="#2b3e51" stroke-width="1" opacity="1"/><text x="96" y="306" font-family="'Helvetica Neue',Arial,sans-serif" font-size="20" font-weight="800" fill="#eef5fb" text-anchor="start" letter-spacing="0">Meta Quest 3S</text><text x="96" y="332" font-family="'SFMono-Regular',Consolas,'Liberation Mono',Menlo,monospace" font-size="15" font-weight="500" fill="#8fa4b6" text-anchor="start" letter-spacing="0">Fresnel · over Link</text><path d="M856 310 H1078" stroke="#38bdf8" stroke-width="3"/><path d="M1086 310 l-16 -10 v20 z" fill="#38bdf8"/><rect x="1098" y="265" width="430" height="90" rx="14" ry="14" fill="#1c2b3a" stroke="#38bdf8" stroke-width="1.5" opacity="1"/><rect x="1098" y="265" width="430" height="90" rx="14" fill="#38bdf8" opacity="0.10"/><text x="1120" y="318" font-family="'Helvetica Neue',Arial,sans-serif" font-size="23" font-weight="800" fill="#38bdf8" text-anchor="start" letter-spacing="0">RTX 5070</text><rect x="72" y="369" width="770" height="90" rx="14" ry="14" fill="#16222e" stroke="#2b3e51" stroke-width="1" opacity="1"/><text x="96" y="410" font-family="'Helvetica Neue',Arial,sans-serif" font-size="20" font-weight="800" fill="#eef5fb" text-anchor="start" letter-spacing="0">Meta Quest 3</text><text x="96" y="436" font-family="'SFMono-Regular',Consolas,'Liberation Mono',Menlo,monospace" font-size="15" font-weight="500" fill="#8fa4b6" text-anchor="start" letter-spacing="0">2064×2208/eye · Link</text><path d="M856 414 H1078" stroke="#38bdf8" stroke-width="3"/><path d="M1086 414 l-16 -10 v20 z" fill="#38bdf8"/><rect x="1098" y="369" width="430" height="90" rx="14" ry="14" fill="#1c2b3a" stroke="#38bdf8" stroke-width="1.5" opacity="1"/><rect x="1098" y="369" width="430" height="90" rx="14" fill="#38bdf8" opacity="0.10"/><text x="1120" y="422" font-family="'Helvetica Neue',Arial,sans-serif" font-size="23" font-weight="800" fill="#38bdf8" text-anchor="start" letter-spacing="0">RTX 5070</text><rect x="72" y="473" width="770" height="90" rx="14" ry="14" fill="#16222e" stroke="#2b3e51" stroke-width="1" opacity="1"/><text x="96" y="514" font-family="'Helvetica Neue',Arial,sans-serif" font-size="20" font-weight="800" fill="#eef5fb" text-anchor="start" letter-spacing="0">Pimax Crystal Light</text><text x="96" y="540" font-family="'SFMono-Regular',Consolas,'Liberation Mono',Menlo,monospace" font-size="15" font-weight="500" fill="#8fa4b6" text-anchor="start" letter-spacing="0">2880×2880/eye · DisplayPort</text><path d="M856 518 H1078" stroke="#38bdf8" stroke-width="3"/><path d="M1086 518 l-16 -10 v20 z" fill="#38bdf8"/><rect x="1098" y="473" width="430" height="90" rx="14" ry="14" fill="#1c2b3a" stroke="#38bdf8" stroke-width="1.5" opacity="1"/><rect x="1098" y="473" width="430" height="90" rx="14" fill="#38bdf8" opacity="0.15"/><text x="1120" y="526" font-family="'Helvetica Neue',Arial,sans-serif" font-size="23" font-weight="800" fill="#38bdf8" text-anchor="start" letter-spacing="0">RTX 5080</text><rect x="72" y="577" width="770" height="90" rx="14" ry="14" fill="#16222e" stroke="#2b3e51" stroke-width="1" opacity="1"/><text x="96" y="618" font-family="'Helvetica Neue',Arial,sans-serif" font-size="20" font-weight="800" fill="#eef5fb" text-anchor="start" letter-spacing="0">Bigscreen Beyond 2</text><text x="96" y="644" font-family="'SFMono-Regular',Consolas,'Liberation Mono',Menlo,monospace" font-size="15" font-weight="500" fill="#8fa4b6" text-anchor="start" letter-spacing="0">2560×2560 micro-OLED</text><path d="M856 622 H1078" stroke="#38bdf8" stroke-width="3"/><path d="M1086 622 l-16 -10 v20 z" fill="#38bdf8"/><rect x="1098" y="577" width="430" height="90" rx="14" ry="14" fill="#1c2b3a" stroke="#38bdf8" stroke-width="1.5" opacity="1"/><rect x="1098" y="577" width="430" height="90" rx="14" fill="#38bdf8" opacity="0.15"/><text x="1120" y="630" font-family="'Helvetica Neue',Arial,sans-serif" font-size="23" font-weight="800" fill="#38bdf8" text-anchor="start" letter-spacing="0">RTX 5080</text><rect x="72" y="681" width="770" height="90" rx="14" ry="14" fill="#16222e" stroke="#2b3e51" stroke-width="1" opacity="1"/><text x="96" y="722" font-family="'Helvetica Neue',Arial,sans-serif" font-size="20" font-weight="800" fill="#eef5fb" text-anchor="start" letter-spacing="0">Pimax Crystal Super</text><text x="96" y="748" font-family="'SFMono-Regular',Consolas,'Liberation Mono',Menlo,monospace" font-size="15" font-weight="500" fill="#8fa4b6" text-anchor="start" letter-spacing="0">3840×3840/eye · ~50 PPD</text><path d="M856 726 H1078" stroke="#38bdf8" stroke-width="3"/><path d="M1086 726 l-16 -10 v20 z" fill="#38bdf8"/><rect x="1098" y="681" width="430" height="90" rx="14" ry="14" fill="#1c2b3a" stroke="#38bdf8" stroke-width="1.5" opacity="1"/><rect x="1098" y="681" width="430" height="90" rx="14" fill="#38bdf8" opacity="0.20"/><text x="1120" y="734" font-family="'Helvetica Neue',Arial,sans-serif" font-size="23" font-weight="800" fill="#38bdf8" text-anchor="start" letter-spacing="0">RTX 5090</text><rect x="72" y="787" width="1456" height="66.24000000000001" rx="14" ry="14" fill="#101820" stroke="#2b3e51" stroke-width="1" opacity="1"/><text x="94" y="817" font-family="'SFMono-Regular',Consolas,'Liberation Mono',Menlo,monospace" font-size="13" font-weight="800" fill="#38bdf8" text-anchor="start" letter-spacing="2">NOTE</text><text x="182" y="813" font-family="'Helvetica Neue',Arial,sans-serif" font-size="16" font-weight="400" fill="#8fa4b6" text-anchor="start" letter-spacing="0">DLSS 4 + foveated rendering in MSFS 2024 help, but do not erase the VR tax. RTX 5090 ≈ 32GB GDDR7 — the card that clears high-res VR + dense scenery at</text><text x="182" y="833.16" font-family="'Helvetica Neue',Arial,sans-serif" font-size="16" font-weight="400" fill="#8fa4b6" text-anchor="start" letter-spacing="0">once.</text>
  <line x1="72" y1="914" x2="1528" y2="914" stroke="#2b3e51" stroke-width="1" opacity="0.6"/>
   <text x="72" y="960" font-family="'SFMono-Regular',Consolas,'Liberation Mono',Menlo,monospace" font-size="16" font-weight="700" fill="#8fa4b6" text-anchor="start" letter-spacing="3">IGNITIONSIM.COM</text>
   <rect x="1418" y="938" width="110" height="34" rx="17" fill="#38bdf8" opacity="0.16"/>
   <text x="1473" y="960" font-family="'SFMono-Regular',Consolas,'Liberation Mono',Menlo,monospace" font-size="15" font-weight="700" fill="#38bdf8" text-anchor="middle" letter-spacing="2">FLIGHT</text>
</svg>