<svg xmlns="http://www.w3.org/2000/svg" viewBox="0 0 1280 468" font-family="'Helvetica Neue',Arial,sans-serif">
  <defs>
    <linearGradient id="bg" x1="0" y1="0" x2="0" y2="1"><stop offset="0" stop-color="#0b1118"/><stop offset="1" stop-color="#0f1a25"/></linearGradient>
    <radialGradient id="gl" cx="0.12" cy="0.1" r="0.7"><stop offset="0" stop-color="#2DD4BF" stop-opacity="0.2"/><stop offset="1" stop-color="#2DD4BF" stop-opacity="0"/></radialGradient>
    <pattern id="grid" width="40" height="40" patternUnits="userSpaceOnUse"><path d="M40 0H0V40" fill="none" stroke="#25384a" stroke-width="1" opacity="0.28"/></pattern>
  </defs>
  <rect width="1280" height="468" rx="26" fill="url(#bg)"/>
  <rect width="1280" height="468" rx="26" fill="url(#grid)"/>
  <rect width="1280" height="468" rx="26" fill="url(#gl)"/>
  <rect x="2" y="2" width="1276" height="464" rx="24" fill="none" stroke="#2DD4BF" stroke-width="2" opacity="0.5"/>
  <rect x="0" y="0" width="10" height="468" rx="5" fill="#2DD4BF"/><circle cx="118" cy="172" r="82" fill="#0b1118" stroke="#2DD4BF" stroke-width="3"/><circle cx="118" cy="168" r="34" fill="none" stroke="#2DD4BF" stroke-width="5"/><circle cx="118" cy="168" r="9" fill="#2DD4BF"/><path d="M152.0 168.0 L168.0 168.0" fill="none" stroke="#2DD4BF" stroke-width="4.5" stroke-linecap="round" stroke-linejoin="round" /><path d="M135.0 197.4 L143.0 211.3" fill="none" stroke="#2DD4BF" stroke-width="4.5" stroke-linecap="round" stroke-linejoin="round" /><path d="M101.0 197.4 L93.0 211.3" fill="none" stroke="#2DD4BF" stroke-width="4.5" stroke-linecap="round" stroke-linejoin="round" /><path d="M84.0 168.0 L68.0 168.0" fill="none" stroke="#2DD4BF" stroke-width="4.5" stroke-linecap="round" stroke-linejoin="round" /><path d="M101.0 138.6 L93.0 124.7" fill="none" stroke="#2DD4BF" stroke-width="4.5" stroke-linecap="round" stroke-linejoin="round" /><path d="M135.0 138.6 L143.0 124.7" fill="none" stroke="#2DD4BF" stroke-width="4.5" stroke-linecap="round" stroke-linejoin="round" /><text x="118" y="290" font-family="'Helvetica Neue',Arial,sans-serif" font-size="40" font-weight="800" fill="#2DD4BF" text-anchor="middle" letter-spacing="3">GC</text><text x="118" y="322" font-family="'SFMono-Regular',Consolas,'Liberation Mono',Menlo,monospace" font-size="13" font-weight="700" fill="#93a7b8" text-anchor="middle" letter-spacing="3">BENCH CREW</text><text x="260" y="96" font-family="'SFMono-Regular',Consolas,'Liberation Mono',Menlo,monospace" font-size="17" font-weight="700" fill="#2DD4BF" text-anchor="start" letter-spacing="4">BRIDGE ODDITIES</text><text x="260" y="168" font-family="'Helvetica Neue',Arial,sans-serif" font-size="62" font-weight="800" fill="#eef5fb" text-anchor="start" letter-spacing="-1">Gus Calder</text><rect x="260" y="188" width="128" height="5" rx="2.5" fill="#2DD4BF"/><text x="260" y="232" font-family="'Helvetica Neue',Arial,sans-serif" font-size="24" font-weight="700" fill="#2DD4BF" text-anchor="start" letter-spacing="0">The helm is whatever you can wire an axis to.</text><rect x="260" y="262" width="640" height="92" rx="14" ry="14" fill="#0e1822" stroke="#2b3e51" stroke-width="1" opacity="1"/><text x="282" y="298" font-family="'Helvetica Neue',Arial,sans-serif" font-size="40" font-weight="800" fill="#2DD4BF" opacity="0.5">&#8220;</text><text x="314" y="300" font-family="'Helvetica Neue',Arial,sans-serif" font-size="21" font-weight="600" fill="#eef5fb" text-anchor="start" letter-spacing="0" font-style="italic">Hear me out — that's a helm now.</text><text x="936" y="78" font-family="'SFMono-Regular',Consolas,'Liberation Mono',Menlo,monospace" font-size="14" font-weight="800" fill="#93a7b8" text-anchor="start" letter-spacing="3">EXPERTISE</text><rect x="936" y="104" width="300" height="46" rx="10" ry="10" fill="#12202c" stroke="#2DD4BF" stroke-width="1.2" opacity="1"/><circle cx="958" cy="127" r="4" fill="#2DD4BF"/><text x="976" y="134" font-family="'Helvetica Neue',Arial,sans-serif" font-size="19" font-weight="700" fill="#eef5fb" text-anchor="start" letter-spacing="0">DIY helms</text><rect x="936" y="160" width="300" height="46" rx="10" ry="10" fill="#12202c" stroke="#2DD4BF" stroke-width="1.2" opacity="1"/><circle cx="958" cy="183" r="4" fill="#2DD4BF"/><text x="976" y="190" font-family="'Helvetica Neue',Arial,sans-serif" font-size="19" font-weight="700" fill="#eef5fb" text-anchor="start" letter-spacing="0">Bodnar boards</text><rect x="936" y="216" width="300" height="46" rx="10" ry="10" fill="#12202c" stroke="#2DD4BF" stroke-width="1.2" opacity="1"/><circle cx="958" cy="239" r="4" fill="#2DD4BF"/><text x="976" y="246" font-family="'Helvetica Neue',Arial,sans-serif" font-size="19" font-weight="700" fill="#eef5fb" text-anchor="start" letter-spacing="0">Throttle quads</text><rect x="936" y="272" width="300" height="46" rx="10" ry="10" fill="#12202c" stroke="#2DD4BF" stroke-width="1.2" opacity="1"/><circle cx="958" cy="295" r="4" fill="#2DD4BF"/><text x="976" y="302" font-family="'Helvetica Neue',Arial,sans-serif" font-size="19" font-weight="700" fill="#eef5fb" text-anchor="start" letter-spacing="0">Config files</text><line x1="30" y1="416" x2="1250" y2="416" stroke="#2b3e51" stroke-width="1" opacity="0.6"/><text x="260" y="444" font-family="'SFMono-Regular',Consolas,'Liberation Mono',Menlo,monospace" font-size="14" font-weight="700" fill="#93a7b8" text-anchor="start" letter-spacing="2">MARINE SIM SINCE 2013</text><text x="118" y="444" font-family="'SFMono-Regular',Consolas,'Liberation Mono',Menlo,monospace" font-size="13" font-weight="700" fill="#93a7b8" text-anchor="middle" letter-spacing="2">IGNITIONSIM.COM</text><rect x="1150" y="426" width="100" height="30" rx="15" ry="15" fill="#2DD4BF" stroke="none" stroke-width="1" opacity="0.16"/><text x="1200" y="446" font-family="'SFMono-Regular',Consolas,'Liberation Mono',Menlo,monospace" font-size="13" font-weight="800" fill="#2DD4BF" text-anchor="middle" letter-spacing="2">MARINE</text></svg>