<svg xmlns="http://www.w3.org/2000/svg" width="1400" height="820" viewBox="0 0 1400 820">
    <defs><linearGradient id="bg" x1="0" y1="0" x2="1" y2="1"><stop stop-color="#07131b"/><stop offset="1" stop-color="#18313c"/></linearGradient><pattern id="grid" width="48" height="48" patternUnits="userSpaceOnUse"><path d="M48 0H0V48" fill="none" stroke="#fff" stroke-opacity=".055"/></pattern></defs>
    <rect width="1400" height="820" fill="url(#bg)"/><rect width="1400" height="820" fill="url(#grid)"/>
    <rect x="75" y="54" width="12" height="205" fill="#44d3a8"/>
    <text x="115" y="94" font-family="Arial, Helvetica, sans-serif" font-size="20" font-weight="800" fill="#44d3a8">ONE DECK, THREE MODES</text>
    <text x="115" y="154" font-family="Arial, Helvetica, sans-serif" font-size="48" font-weight="800" fill="#f5f7f6">Keep precision on an axis and mode changes</text><text x="115" y="203.92000000000002" font-family="Arial, Helvetica, sans-serif" font-size="48" font-weight="800" fill="#f5f7f6">where you can see them.</text>
    <g>
      <rect x="75" y="300" width="390" height="350" rx="18" fill="#ffffff" fill-opacity="0.96" stroke="#44d3a8" stroke-width="4"/>
      <rect x="75" y="300" width="390" height="74" rx="18" fill="#44d3a8"/>
      <text x="101" y="348" font-family="Arial, Helvetica, sans-serif" font-size="26" font-weight="800" fill="#0b1720">FLIGHT</text>
      <circle cx="107" cy="411" r="6" fill="#44d3a8"/><text x="127" y="420" font-family="Arial, Helvetica, sans-serif" font-size="24" font-weight="650" fill="#1d2a34">Scan / ping</text><circle cx="107" cy="466" r="6" fill="#44d3a8"/><text x="127" y="475" font-family="Arial, Helvetica, sans-serif" font-size="24" font-weight="650" fill="#1d2a34">Gear + VTOL</text><circle cx="107" cy="521" r="6" fill="#44d3a8"/><text x="127" y="530" font-family="Arial, Helvetica, sans-serif" font-size="24" font-weight="650" fill="#1d2a34">Target + power</text><circle cx="107" cy="576" r="6" fill="#44d3a8"/><text x="127" y="585" font-family="Arial, Helvetica, sans-serif" font-size="24" font-weight="650" fill="#1d2a34">Master-mode page</text>
    </g><g>
      <rect x="495" y="300" width="390" height="350" rx="18" fill="#ffffff" fill-opacity="0.96" stroke="#44d3a8" stroke-width="4"/>
      <rect x="495" y="300" width="390" height="74" rx="18" fill="#44d3a8"/>
      <text x="521" y="348" font-family="Arial, Helvetica, sans-serif" font-size="26" font-weight="800" fill="#0b1720">MINING</text>
      <circle cx="527" cy="411" r="6" fill="#44d3a8"/><text x="547" y="420" font-family="Arial, Helvetica, sans-serif" font-size="24" font-weight="650" fill="#1d2a34">Laser power on real axis</text><circle cx="527" cy="466" r="6" fill="#44d3a8"/><text x="547" y="475" font-family="Arial, Helvetica, sans-serif" font-size="24" font-weight="650" fill="#1d2a34">Fracture / extraction</text><circle cx="527" cy="521" r="6" fill="#44d3a8"/><text x="547" y="530" font-family="Arial, Helvetica, sans-serif" font-size="24" font-weight="650" fill="#1d2a34">Module selection</text><circle cx="527" cy="576" r="6" fill="#44d3a8"/><text x="547" y="585" font-family="Arial, Helvetica, sans-serif" font-size="24" font-weight="650" fill="#1d2a34">Charge warning visible</text>
    </g><g>
      <rect x="915" y="300" width="390" height="350" rx="18" fill="#ffffff" fill-opacity="0.96" stroke="#44d3a8" stroke-width="4"/>
      <rect x="915" y="300" width="390" height="74" rx="18" fill="#44d3a8"/>
      <text x="941" y="348" font-family="Arial, Helvetica, sans-serif" font-size="26" font-weight="800" fill="#0b1720">SALVAGE</text>
      <circle cx="947" cy="411" r="6" fill="#44d3a8"/><text x="967" y="420" font-family="Arial, Helvetica, sans-serif" font-size="24" font-weight="650" fill="#1d2a34">Mode + beam control</text><circle cx="947" cy="466" r="6" fill="#44d3a8"/><text x="967" y="475" font-family="Arial, Helvetica, sans-serif" font-size="24" font-weight="650" fill="#1d2a34">Gimbal / heads</text><circle cx="947" cy="521" r="6" fill="#44d3a8"/><text x="967" y="530" font-family="Arial, Helvetica, sans-serif" font-size="24" font-weight="650" fill="#1d2a34">Cargo + tractor</text><circle cx="947" cy="576" r="6" fill="#44d3a8"/><text x="967" y="585" font-family="Arial, Helvetica, sans-serif" font-size="24" font-weight="650" fill="#1d2a34">Recovery page</text>
    </g>
    <rect x="75" y="690" width="1230" height="74" rx="12" fill="#ffffff" fill-opacity="0.1" stroke="#ffffff" stroke-opacity="0.18"/>
    <text x="108" y="735" font-family="Arial, Helvetica, sans-serif" font-size="24" font-weight="650" fill="#dbe7ea">A button deck is excellent memory. It is not a substitute for the analog control your</text><text x="108" y="762.84" font-family="Arial, Helvetica, sans-serif" font-size="24" font-weight="650" fill="#dbe7ea">laser power needs.</text>
    <text x="1285" y="790" text-anchor="end" font-family="Arial, Helvetica, sans-serif" font-size="16" font-weight="800" fill="#44d3a8">IGNITIONSIM · FIELD MAP</text>
  </svg>