<svg xmlns="http://www.w3.org/2000/svg" width="1400" height="820" viewBox="0 0 1400 820">
    <defs>
      <linearGradient id="bg" x1="0" y1="0" x2="1" y2="1"><stop stop-color="#07131b"/><stop offset="1" stop-color="#193440"/></linearGradient>
      <pattern id="grid" width="48" height="48" patternUnits="userSpaceOnUse"><path d="M48 0H0V48" fill="none" stroke="#fff" stroke-opacity=".055"/></pattern>
    </defs>
    <rect width="1400" height="820" fill="url(#bg)"/><rect width="1400" height="820" fill="url(#grid)"/>
    <rect x="54" y="54" width="12" height="198" fill="#22d3ee"/>
    <text x="92" y="92" font-family="Arial, Helvetica, sans-serif" font-size="19" font-weight="900" fill="#22d3ee">MONITOR, VR, OR BOTH?</text>
    <text x="92" y="154" font-family="Arial, Helvetica, sans-serif" font-size="46" font-weight="900" fill="#fff">Choose the compromise you will still tolerate</text><text x="92" y="201.84" font-family="Arial, Helvetica, sans-serif" font-size="46" font-weight="900" fill="#fff">after two hours.</text>
    <g>
      <rect x="54" y="300" width="306" height="360" rx="16" fill="#f8fbfc" stroke="#22d3ee" stroke-width="4"/>
      <rect x="54" y="300" width="306" height="72" rx="16" fill="#22d3ee"/>
      <text x="76" y="345" font-family="Arial, Helvetica, sans-serif" font-size="24" font-weight="900" fill="#07131b">32:9 DISPLAY</text>
      <circle cx="80" cy="416" r="6" fill="#22d3ee"/><text x="98" y="424" font-family="Arial, Helvetica, sans-serif" font-size="22" font-weight="700" fill="#1d2a34">Instant entry and crisp</text><text x="98" y="449.3" font-family="Arial, Helvetica, sans-serif" font-size="22" font-weight="700" fill="#1d2a34">text</text><circle cx="80" cy="480" r="6" fill="#22d3ee"/><text x="98" y="488" font-family="Arial, Helvetica, sans-serif" font-size="22" font-weight="700" fill="#1d2a34">Shared room friendly</text><circle cx="80" cy="544" r="6" fill="#22d3ee"/><text x="98" y="552" font-family="Arial, Helvetica, sans-serif" font-size="22" font-weight="700" fill="#1d2a34">Needs width and GPU</text>
    </g><g>
      <rect x="386" y="300" width="306" height="360" rx="16" fill="#f8fbfc" stroke="#22d3ee" stroke-width="4"/>
      <rect x="386" y="300" width="306" height="72" rx="16" fill="#22d3ee"/>
      <text x="408" y="345" font-family="Arial, Helvetica, sans-serif" font-size="24" font-weight="900" fill="#07131b">VR HEADSET</text>
      <circle cx="412" cy="416" r="6" fill="#22d3ee"/><text x="430" y="424" font-family="Arial, Helvetica, sans-serif" font-size="22" font-weight="700" fill="#1d2a34">Best presence and depth</text><circle cx="412" cy="480" r="6" fill="#22d3ee"/><text x="430" y="488" font-family="Arial, Helvetica, sans-serif" font-size="22" font-weight="700" fill="#1d2a34">Small physical</text><text x="430" y="513.3" font-family="Arial, Helvetica, sans-serif" font-size="22" font-weight="700" fill="#1d2a34">footprint</text><circle cx="412" cy="544" r="6" fill="#22d3ee"/><text x="430" y="552" font-family="Arial, Helvetica, sans-serif" font-size="22" font-weight="700" fill="#1d2a34">Heat, comfort, clarity</text><text x="430" y="577.3" font-family="Arial, Helvetica, sans-serif" font-size="22" font-weight="700" fill="#1d2a34">tax</text>
    </g><g>
      <rect x="718" y="300" width="306" height="360" rx="16" fill="#f8fbfc" stroke="#22d3ee" stroke-width="4"/>
      <rect x="718" y="300" width="306" height="72" rx="16" fill="#22d3ee"/>
      <text x="740" y="345" font-family="Arial, Helvetica, sans-serif" font-size="24" font-weight="900" fill="#07131b">HEAD TRACKING</text>
      <circle cx="744" cy="416" r="6" fill="#22d3ee"/><text x="762" y="424" font-family="Arial, Helvetica, sans-serif" font-size="22" font-weight="700" fill="#1d2a34">Low-cost cockpit</text><text x="762" y="449.3" font-family="Arial, Helvetica, sans-serif" font-size="22" font-weight="700" fill="#1d2a34">freedom</text><circle cx="744" cy="480" r="6" fill="#22d3ee"/><text x="762" y="488" font-family="Arial, Helvetica, sans-serif" font-size="22" font-weight="700" fill="#1d2a34">Keeps real controls</text><text x="762" y="513.3" font-family="Arial, Helvetica, sans-serif" font-size="22" font-weight="700" fill="#1d2a34">visible</text><circle cx="744" cy="544" r="6" fill="#22d3ee"/><text x="762" y="552" font-family="Arial, Helvetica, sans-serif" font-size="22" font-weight="700" fill="#1d2a34">Not true stereoscopic</text><text x="762" y="577.3" font-family="Arial, Helvetica, sans-serif" font-size="22" font-weight="700" fill="#1d2a34">depth</text>
    </g><g>
      <rect x="1050" y="300" width="306" height="360" rx="16" fill="#f8fbfc" stroke="#22d3ee" stroke-width="4"/>
      <rect x="1050" y="300" width="306" height="72" rx="16" fill="#22d3ee"/>
      <text x="1072" y="345" font-family="Arial, Helvetica, sans-serif" font-size="24" font-weight="900" fill="#07131b">HYBRID ROOM</text>
      <circle cx="1076" cy="416" r="6" fill="#22d3ee"/><text x="1094" y="424" font-family="Arial, Helvetica, sans-serif" font-size="22" font-weight="700" fill="#1d2a34">One display plus</text><text x="1094" y="449.3" font-family="Arial, Helvetica, sans-serif" font-size="22" font-weight="700" fill="#1d2a34">optional VR</text><circle cx="1076" cy="480" r="6" fill="#22d3ee"/><text x="1094" y="488" font-family="Arial, Helvetica, sans-serif" font-size="22" font-weight="700" fill="#1d2a34">Best long-term</text><text x="1094" y="513.3" font-family="Arial, Helvetica, sans-serif" font-size="22" font-weight="700" fill="#1d2a34">flexibility</text><circle cx="1076" cy="544" r="6" fill="#22d3ee"/><text x="1094" y="552" font-family="Arial, Helvetica, sans-serif" font-size="22" font-weight="700" fill="#1d2a34">Highest total spend</text>
    </g>
    <rect x="54" y="704" width="1290" height="66" rx="12" fill="#fff" fill-opacity=".1" stroke="#fff" stroke-opacity=".16"/>
    <text x="84" y="745" font-family="Arial, Helvetica, sans-serif" font-size="23" font-weight="650" fill="#e5eef0">Racing, flight, space, marine, and golf do not reward the same display choice. Start with the game</text><text x="84" y="771.45" font-family="Arial, Helvetica, sans-serif" font-size="23" font-weight="650" fill="#e5eef0">you play weekly.</text>
    <text x="1338" y="798" text-anchor="end" font-family="Arial, Helvetica, sans-serif" font-size="15" font-weight="900" fill="#22d3ee">IGNITIONSIM · 2026 FIELD MAP</text>
  </svg>