<svg xmlns="http://www.w3.org/2000/svg" width="1400" height="820" viewBox="0 0 1400 820">
    <defs>
      <linearGradient id="bg" x1="0" y1="0" x2="1" y2="1"><stop stop-color="#07131b"/><stop offset="1" stop-color="#193440"/></linearGradient>
      <pattern id="grid" width="48" height="48" patternUnits="userSpaceOnUse"><path d="M48 0H0V48" fill="none" stroke="#fff" stroke-opacity=".055"/></pattern>
    </defs>
    <rect width="1400" height="820" fill="url(#bg)"/><rect width="1400" height="820" fill="url(#grid)"/>
    <rect x="54" y="54" width="12" height="198" fill="#ff5e1a"/>
    <text x="92" y="92" font-family="Arial, Helvetica, sans-serif" font-size="19" font-weight="900" fill="#ff5e1a">THE LAP-TIME ORDER</text>
    <text x="92" y="154" font-family="Arial, Helvetica, sans-serif" font-size="46" font-weight="900" fill="#fff">Rigidity and braking come before torque theater.</text>
    <g>
      <rect x="54" y="300" width="306" height="360" rx="16" fill="#f8fbfc" stroke="#ff5e1a" stroke-width="4"/>
      <rect x="54" y="300" width="306" height="72" rx="16" fill="#ff5e1a"/>
      <text x="76" y="345" font-family="Arial, Helvetica, sans-serif" font-size="24" font-weight="900" fill="#07131b">1 · POSITION</text>
      <circle cx="80" cy="416" r="6" fill="#ff5e1a"/><text x="98" y="424" font-family="Arial, Helvetica, sans-serif" font-size="22" font-weight="700" fill="#1d2a34">Seat, wheel, pedals</text><text x="98" y="449.3" font-family="Arial, Helvetica, sans-serif" font-size="22" font-weight="700" fill="#1d2a34">repeat</text><circle cx="80" cy="480" r="6" fill="#ff5e1a"/><text x="98" y="488" font-family="Arial, Helvetica, sans-serif" font-size="22" font-weight="700" fill="#1d2a34">No chair roll</text><circle cx="80" cy="544" r="6" fill="#ff5e1a"/><text x="98" y="552" font-family="Arial, Helvetica, sans-serif" font-size="22" font-weight="700" fill="#1d2a34">No desk wobble</text>
    </g><g>
      <rect x="386" y="300" width="306" height="360" rx="16" fill="#f8fbfc" stroke="#ff5e1a" stroke-width="4"/>
      <rect x="386" y="300" width="306" height="72" rx="16" fill="#ff5e1a"/>
      <text x="408" y="345" font-family="Arial, Helvetica, sans-serif" font-size="24" font-weight="900" fill="#07131b">2 · BRAKE</text>
      <circle cx="412" cy="416" r="6" fill="#ff5e1a"/><text x="430" y="424" font-family="Arial, Helvetica, sans-serif" font-size="22" font-weight="700" fill="#1d2a34">Load cell on a stiff</text><text x="430" y="449.3" font-family="Arial, Helvetica, sans-serif" font-size="22" font-weight="700" fill="#1d2a34">deck</text><circle cx="412" cy="480" r="6" fill="#ff5e1a"/><text x="430" y="488" font-family="Arial, Helvetica, sans-serif" font-size="22" font-weight="700" fill="#1d2a34">Tune force to your leg</text><circle cx="412" cy="544" r="6" fill="#ff5e1a"/><text x="430" y="552" font-family="Arial, Helvetica, sans-serif" font-size="22" font-weight="700" fill="#1d2a34">Add heel support</text>
    </g><g>
      <rect x="718" y="300" width="306" height="360" rx="16" fill="#f8fbfc" stroke="#ff5e1a" stroke-width="4"/>
      <rect x="718" y="300" width="306" height="72" rx="16" fill="#ff5e1a"/>
      <text x="740" y="345" font-family="Arial, Helvetica, sans-serif" font-size="24" font-weight="900" fill="#07131b">3 · SIGNAL</text>
      <circle cx="744" cy="416" r="6" fill="#ff5e1a"/><text x="762" y="424" font-family="Arial, Helvetica, sans-serif" font-size="22" font-weight="700" fill="#1d2a34">5.5-12 Nm direct drive</text><circle cx="744" cy="480" r="6" fill="#ff5e1a"/><text x="762" y="488" font-family="Arial, Helvetica, sans-serif" font-size="22" font-weight="700" fill="#1d2a34">Leave clipping headroom</text><circle cx="744" cy="544" r="6" fill="#ff5e1a"/><text x="762" y="552" font-family="Arial, Helvetica, sans-serif" font-size="22" font-weight="700" fill="#1d2a34">Choose ecosystem</text>
    </g><g>
      <rect x="1050" y="300" width="306" height="360" rx="16" fill="#f8fbfc" stroke="#ff5e1a" stroke-width="4"/>
      <rect x="1050" y="300" width="306" height="72" rx="16" fill="#ff5e1a"/>
      <text x="1072" y="345" font-family="Arial, Helvetica, sans-serif" font-size="24" font-weight="900" fill="#07131b">4 · IMMERSION</text>
      <circle cx="1076" cy="416" r="6" fill="#ff5e1a"/><text x="1094" y="424" font-family="Arial, Helvetica, sans-serif" font-size="22" font-weight="700" fill="#1d2a34">Correct FOV, then</text><text x="1094" y="449.3" font-family="Arial, Helvetica, sans-serif" font-size="22" font-weight="700" fill="#1d2a34">tactile</text><circle cx="1076" cy="480" r="6" fill="#ff5e1a"/><text x="1094" y="488" font-family="Arial, Helvetica, sans-serif" font-size="22" font-weight="700" fill="#1d2a34">Add shifter by</text><text x="1094" y="513.3" font-family="Arial, Helvetica, sans-serif" font-size="22" font-weight="700" fill="#1d2a34">discipline</text><circle cx="1076" cy="544" r="6" fill="#ff5e1a"/><text x="1094" y="552" font-family="Arial, Helvetica, sans-serif" font-size="22" font-weight="700" fill="#1d2a34">Motion comes last</text>
    </g>
    <rect x="54" y="704" width="1290" height="66" rx="12" fill="#fff" fill-opacity=".1" stroke="#fff" stroke-opacity=".16"/>
    <text x="84" y="745" font-family="Arial, Helvetica, sans-serif" font-size="23" font-weight="650" fill="#e5eef0">A stronger base only makes a weak frame tell the truth louder.</text>
    <text x="1338" y="798" text-anchor="end" font-family="Arial, Helvetica, sans-serif" font-size="15" font-weight="900" fill="#ff5e1a">IGNITIONSIM · 2026 FIELD MAP</text>
  </svg>