<svg xmlns="http://www.w3.org/2000/svg" width="1400" height="820" viewBox="0 0 1400 820">
    <defs>
      <linearGradient id="bg" x1="0" y1="0" x2="1" y2="1"><stop stop-color="#07131b"/><stop offset="1" stop-color="#193440"/></linearGradient>
      <pattern id="grid" width="48" height="48" patternUnits="userSpaceOnUse"><path d="M48 0H0V48" fill="none" stroke="#fff" stroke-opacity=".055"/></pattern>
    </defs>
    <rect width="1400" height="820" fill="url(#bg)"/><rect width="1400" height="820" fill="url(#grid)"/>
    <rect x="54" y="54" width="12" height="198" fill="#eab308"/>
    <text x="92" y="92" font-family="Arial, Helvetica, sans-serif" font-size="19" font-weight="900" fill="#eab308">THE REAL CART</text>
    <text x="92" y="154" font-family="Arial, Helvetica, sans-serif" font-size="46" font-weight="900" fill="#fff">The launch monitor is only the brain; budget the</text><text x="92" y="201.84" font-family="Arial, Helvetica, sans-serif" font-size="46" font-weight="900" fill="#fff">whole body.</text>
    <g>
      <rect x="54" y="300" width="306" height="360" rx="16" fill="#f8fbfc" stroke="#eab308" stroke-width="4"/>
      <rect x="54" y="300" width="306" height="72" rx="16" fill="#eab308"/>
      <text x="76" y="345" font-family="Arial, Helvetica, sans-serif" font-size="24" font-weight="900" fill="#07131b">$1,200-$2,000</text>
      <circle cx="80" cy="416" r="6" fill="#eab308"/><text x="98" y="424" font-family="Arial, Helvetica, sans-serif" font-size="22" font-weight="700" fill="#1d2a34">Garmin R10 + net</text><circle cx="80" cy="480" r="6" fill="#eab308"/><text x="98" y="488" font-family="Arial, Helvetica, sans-serif" font-size="22" font-weight="700" fill="#1d2a34">Joint-safe hitting</text><text x="98" y="513.3" font-family="Arial, Helvetica, sans-serif" font-size="22" font-weight="700" fill="#1d2a34">strip</text><circle cx="80" cy="544" r="6" fill="#eab308"/><text x="98" y="552" font-family="Arial, Helvetica, sans-serif" font-size="22" font-weight="700" fill="#1d2a34">Phone / tablet display</text>
    </g><g>
      <rect x="386" y="300" width="306" height="360" rx="16" fill="#f8fbfc" stroke="#eab308" stroke-width="4"/>
      <rect x="386" y="300" width="306" height="72" rx="16" fill="#eab308"/>
      <text x="408" y="345" font-family="Arial, Helvetica, sans-serif" font-size="24" font-weight="900" fill="#07131b">$3,000-$6,000</text>
      <circle cx="412" cy="416" r="6" fill="#eab308"/><text x="430" y="424" font-family="Arial, Helvetica, sans-serif" font-size="22" font-weight="700" fill="#1d2a34">MLM2PRO / camera</text><text x="430" y="449.3" font-family="Arial, Helvetica, sans-serif" font-size="22" font-weight="700" fill="#1d2a34">monitor</text><circle cx="412" cy="480" r="6" fill="#eab308"/><text x="430" y="488" font-family="Arial, Helvetica, sans-serif" font-size="22" font-weight="700" fill="#1d2a34">Enclosure + 1080p short</text><text x="430" y="513.3" font-family="Arial, Helvetica, sans-serif" font-size="22" font-weight="700" fill="#1d2a34">throw</text><circle cx="412" cy="544" r="6" fill="#eab308"/><text x="430" y="552" font-family="Arial, Helvetica, sans-serif" font-size="22" font-weight="700" fill="#1d2a34">Software subscription</text>
    </g><g>
      <rect x="718" y="300" width="306" height="360" rx="16" fill="#f8fbfc" stroke="#eab308" stroke-width="4"/>
      <rect x="718" y="300" width="306" height="72" rx="16" fill="#eab308"/>
      <text x="740" y="345" font-family="Arial, Helvetica, sans-serif" font-size="24" font-weight="900" fill="#07131b">$7,000-$12,000</text>
      <circle cx="744" cy="416" r="6" fill="#eab308"/><text x="762" y="424" font-family="Arial, Helvetica, sans-serif" font-size="22" font-weight="700" fill="#1d2a34">ST MAX / Launch Pro</text><text x="762" y="449.3" font-family="Arial, Helvetica, sans-serif" font-size="22" font-weight="700" fill="#1d2a34">class</text><circle cx="744" cy="480" r="6" fill="#eab308"/><text x="762" y="488" font-family="Arial, Helvetica, sans-serif" font-size="22" font-weight="700" fill="#1d2a34">Premium screen + mat</text><circle cx="744" cy="544" r="6" fill="#eab308"/><text x="762" y="552" font-family="Arial, Helvetica, sans-serif" font-size="22" font-weight="700" fill="#1d2a34">Dedicated PC + laser</text><text x="762" y="577.3" font-family="Arial, Helvetica, sans-serif" font-size="22" font-weight="700" fill="#1d2a34">projector</text>
    </g><g>
      <rect x="1050" y="300" width="306" height="360" rx="16" fill="#f8fbfc" stroke="#eab308" stroke-width="4"/>
      <rect x="1050" y="300" width="306" height="72" rx="16" fill="#eab308"/>
      <text x="1072" y="345" font-family="Arial, Helvetica, sans-serif" font-size="24" font-weight="900" fill="#07131b">$15,000+</text>
      <circle cx="1076" cy="416" r="6" fill="#eab308"/><text x="1094" y="424" font-family="Arial, Helvetica, sans-serif" font-size="22" font-weight="700" fill="#1d2a34">R50 / premium camera</text><circle cx="1076" cy="480" r="6" fill="#eab308"/><text x="1094" y="488" font-family="Arial, Helvetica, sans-serif" font-size="22" font-weight="700" fill="#1d2a34">Finished room and</text><text x="1094" y="513.3" font-family="Arial, Helvetica, sans-serif" font-size="22" font-weight="700" fill="#1d2a34">protection</text><circle cx="1076" cy="544" r="6" fill="#eab308"/><text x="1094" y="552" font-family="Arial, Helvetica, sans-serif" font-size="22" font-weight="700" fill="#1d2a34">Service and upgrade</text><text x="1094" y="577.3" font-family="Arial, Helvetica, sans-serif" font-size="22" font-weight="700" fill="#1d2a34">access</text>
    </g>
    <rect x="54" y="704" width="1290" height="66" rx="12" fill="#fff" fill-opacity=".1" stroke="#fff" stroke-opacity=".16"/>
    <text x="84" y="745" font-family="Arial, Helvetica, sans-serif" font-size="23" font-weight="650" fill="#e5eef0">Price three years of software, then refuse to cheap out on the mat or safety enclosure.</text>
    <text x="1338" y="798" text-anchor="end" font-family="Arial, Helvetica, sans-serif" font-size="15" font-weight="900" fill="#eab308">IGNITIONSIM · 2026 FIELD MAP</text>
  </svg>